<mxfile host="app.diagrams.net" modified="2022-02-25T06:47:11.788Z" agent="5.0 (Windows NT 10.0; WOW64) AppleWebKit/537.36 (KHTML, like Gecko) Chrome/98.0.4758.102 Safari/537.36" etag="S41aIO-0_sYB0Ag1UarX" version="16.6.4" type="github">
  <diagram name="Page-1" id="c7488fd3-1785-93aa-aadb-54a6760d102a">
    <mxGraphModel dx="2522" dy="704" grid="1" gridSize="10" guides="1" tooltips="1" connect="1" arrows="1" fold="1" page="1" pageScale="1" pageWidth="1100" pageHeight="850" background="none" math="0" shadow="0">
      <root>
        <mxCell id="0" />
        <mxCell id="1" parent="0" />
        <mxCell id="_agv1lfEYgulr-Ovr4a9-1" value="caller pc" style="rounded=0;whiteSpace=wrap;html=1;" vertex="1" parent="1">
          <mxGeometry x="120" y="120" width="120" height="40" as="geometry" />
        </mxCell>
        <mxCell id="_agv1lfEYgulr-Ovr4a9-2" value="0x000000c000047f78" style="text;html=1;align=center;verticalAlign=middle;resizable=0;points=[];autosize=1;strokeColor=none;fillColor=none;" vertex="1" parent="1">
          <mxGeometry x="320" y="150" width="130" height="20" as="geometry" />
        </mxCell>
        <mxCell id="_agv1lfEYgulr-Ovr4a9-3" value="old rbp" style="rounded=0;whiteSpace=wrap;html=1;" vertex="1" parent="1">
          <mxGeometry x="120" y="160" width="120" height="40" as="geometry" />
        </mxCell>
        <mxCell id="_agv1lfEYgulr-Ovr4a9-4" value="0x000000c000047f70" style="text;html=1;align=center;verticalAlign=middle;resizable=0;points=[];autosize=1;strokeColor=none;fillColor=none;" vertex="1" parent="1">
          <mxGeometry x="320" y="190" width="130" height="20" as="geometry" />
        </mxCell>
        <mxCell id="_agv1lfEYgulr-Ovr4a9-5" value="" style="rounded=0;whiteSpace=wrap;html=1;" vertex="1" parent="1">
          <mxGeometry x="120" y="200" width="120" height="40" as="geometry" />
        </mxCell>
        <mxCell id="_agv1lfEYgulr-Ovr4a9-6" value="0x000000c000047f68" style="text;html=1;align=center;verticalAlign=middle;resizable=0;points=[];autosize=1;strokeColor=none;fillColor=none;" vertex="1" parent="1">
          <mxGeometry x="320" y="230" width="130" height="20" as="geometry" />
        </mxCell>
        <mxCell id="_agv1lfEYgulr-Ovr4a9-7" value="" style="rounded=0;whiteSpace=wrap;html=1;" vertex="1" parent="1">
          <mxGeometry x="120" y="240" width="120" height="40" as="geometry" />
        </mxCell>
        <mxCell id="_agv1lfEYgulr-Ovr4a9-8" value="0x000000c000047f60" style="text;html=1;align=center;verticalAlign=middle;resizable=0;points=[];autosize=1;strokeColor=none;fillColor=none;" vertex="1" parent="1">
          <mxGeometry x="320" y="270" width="130" height="20" as="geometry" />
        </mxCell>
        <mxCell id="_agv1lfEYgulr-Ovr4a9-9" value="" style="rounded=0;whiteSpace=wrap;html=1;" vertex="1" parent="1">
          <mxGeometry x="120" y="280" width="120" height="40" as="geometry" />
        </mxCell>
        <mxCell id="_agv1lfEYgulr-Ovr4a9-10" value="0x000000c000047f58" style="text;html=1;align=center;verticalAlign=middle;resizable=0;points=[];autosize=1;strokeColor=none;fillColor=none;" vertex="1" parent="1">
          <mxGeometry x="320" y="310" width="130" height="20" as="geometry" />
        </mxCell>
        <mxCell id="_agv1lfEYgulr-Ovr4a9-11" value="" style="rounded=0;whiteSpace=wrap;html=1;" vertex="1" parent="1">
          <mxGeometry x="120" y="320" width="120" height="40" as="geometry" />
        </mxCell>
        <mxCell id="_agv1lfEYgulr-Ovr4a9-12" value="0x000000c000047f50" style="text;html=1;align=center;verticalAlign=middle;resizable=0;points=[];autosize=1;strokeColor=none;fillColor=none;" vertex="1" parent="1">
          <mxGeometry x="320" y="350" width="130" height="20" as="geometry" />
        </mxCell>
        <mxCell id="_agv1lfEYgulr-Ovr4a9-13" value="" style="rounded=0;whiteSpace=wrap;html=1;" vertex="1" parent="1">
          <mxGeometry x="120" y="360" width="120" height="40" as="geometry" />
        </mxCell>
        <mxCell id="_agv1lfEYgulr-Ovr4a9-14" value="0x000000c000047f48" style="text;html=1;align=center;verticalAlign=middle;resizable=0;points=[];autosize=1;strokeColor=none;fillColor=none;" vertex="1" parent="1">
          <mxGeometry x="320" y="390" width="130" height="20" as="geometry" />
        </mxCell>
        <mxCell id="_agv1lfEYgulr-Ovr4a9-15" value="" style="rounded=0;whiteSpace=wrap;html=1;" vertex="1" parent="1">
          <mxGeometry x="120" y="400" width="120" height="40" as="geometry" />
        </mxCell>
        <mxCell id="_agv1lfEYgulr-Ovr4a9-16" value="0x000000c000047f40" style="text;html=1;align=center;verticalAlign=middle;resizable=0;points=[];autosize=1;strokeColor=none;fillColor=none;" vertex="1" parent="1">
          <mxGeometry x="320" y="430" width="130" height="20" as="geometry" />
        </mxCell>
        <mxCell id="_agv1lfEYgulr-Ovr4a9-17" value="" style="rounded=0;whiteSpace=wrap;html=1;" vertex="1" parent="1">
          <mxGeometry x="120" y="440" width="120" height="40" as="geometry" />
        </mxCell>
        <mxCell id="_agv1lfEYgulr-Ovr4a9-18" value="0x000000c000047f38" style="text;html=1;align=center;verticalAlign=middle;resizable=0;points=[];autosize=1;strokeColor=none;fillColor=none;" vertex="1" parent="1">
          <mxGeometry x="320" y="470" width="130" height="20" as="geometry" />
        </mxCell>
        <mxCell id="_agv1lfEYgulr-Ovr4a9-19" value="" style="rounded=0;whiteSpace=wrap;html=1;" vertex="1" parent="1">
          <mxGeometry x="120" y="480" width="120" height="40" as="geometry" />
        </mxCell>
        <mxCell id="_agv1lfEYgulr-Ovr4a9-20" value="0x000000c000047f30" style="text;html=1;align=center;verticalAlign=middle;resizable=0;points=[];autosize=1;strokeColor=none;fillColor=none;" vertex="1" parent="1">
          <mxGeometry x="320" y="510" width="130" height="20" as="geometry" />
        </mxCell>
        <mxCell id="_agv1lfEYgulr-Ovr4a9-21" value="" style="rounded=0;whiteSpace=wrap;html=1;" vertex="1" parent="1">
          <mxGeometry x="120" y="520" width="120" height="40" as="geometry" />
        </mxCell>
        <mxCell id="_agv1lfEYgulr-Ovr4a9-22" value="0x000000c000047f28" style="text;html=1;align=center;verticalAlign=middle;resizable=0;points=[];autosize=1;strokeColor=none;fillColor=none;" vertex="1" parent="1">
          <mxGeometry x="320" y="550" width="130" height="20" as="geometry" />
        </mxCell>
        <mxCell id="_agv1lfEYgulr-Ovr4a9-23" value="" style="rounded=0;whiteSpace=wrap;html=1;" vertex="1" parent="1">
          <mxGeometry x="120" y="560" width="120" height="40" as="geometry" />
        </mxCell>
        <mxCell id="_agv1lfEYgulr-Ovr4a9-24" value="0x000000c000047f20" style="text;html=1;align=center;verticalAlign=middle;resizable=0;points=[];autosize=1;strokeColor=none;fillColor=none;" vertex="1" parent="1">
          <mxGeometry x="320" y="590" width="130" height="20" as="geometry" />
        </mxCell>
        <mxCell id="_agv1lfEYgulr-Ovr4a9-25" value="" style="rounded=0;whiteSpace=wrap;html=1;" vertex="1" parent="1">
          <mxGeometry x="120" y="600" width="120" height="40" as="geometry" />
        </mxCell>
        <mxCell id="_agv1lfEYgulr-Ovr4a9-26" value="0x000000c000047f18" style="text;html=1;align=center;verticalAlign=middle;resizable=0;points=[];autosize=1;strokeColor=none;fillColor=none;" vertex="1" parent="1">
          <mxGeometry x="320" y="630" width="130" height="20" as="geometry" />
        </mxCell>
        <mxCell id="_agv1lfEYgulr-Ovr4a9-27" value="" style="rounded=0;whiteSpace=wrap;html=1;" vertex="1" parent="1">
          <mxGeometry x="120" y="640" width="120" height="40" as="geometry" />
        </mxCell>
        <mxCell id="_agv1lfEYgulr-Ovr4a9-28" value="0x000000c000047f10" style="text;html=1;align=center;verticalAlign=middle;resizable=0;points=[];autosize=1;strokeColor=none;fillColor=none;" vertex="1" parent="1">
          <mxGeometry x="320" y="670" width="130" height="20" as="geometry" />
        </mxCell>
        <mxCell id="_agv1lfEYgulr-Ovr4a9-29" value="" style="rounded=0;whiteSpace=wrap;html=1;" vertex="1" parent="1">
          <mxGeometry x="120" y="680" width="120" height="40" as="geometry" />
        </mxCell>
        <mxCell id="_agv1lfEYgulr-Ovr4a9-30" value="0x000000c000047f08" style="text;html=1;align=center;verticalAlign=middle;resizable=0;points=[];autosize=1;strokeColor=none;fillColor=none;" vertex="1" parent="1">
          <mxGeometry x="320" y="710" width="130" height="20" as="geometry" />
        </mxCell>
        <mxCell id="_agv1lfEYgulr-Ovr4a9-31" value="fn" style="rounded=0;whiteSpace=wrap;html=1;" vertex="1" parent="1">
          <mxGeometry x="120" y="720" width="120" height="40" as="geometry" />
        </mxCell>
        <mxCell id="_agv1lfEYgulr-Ovr4a9-32" value="0x000000c000047f00" style="text;html=1;align=center;verticalAlign=middle;resizable=0;points=[];autosize=1;strokeColor=none;fillColor=none;" vertex="1" parent="1">
          <mxGeometry x="320" y="750" width="130" height="20" as="geometry" />
        </mxCell>
        <mxCell id="_agv1lfEYgulr-Ovr4a9-33" value="pc" style="rounded=0;whiteSpace=wrap;html=1;" vertex="1" parent="1">
          <mxGeometry x="120" y="760" width="120" height="40" as="geometry" />
        </mxCell>
        <mxCell id="_agv1lfEYgulr-Ovr4a9-34" value="0x000000c000047ef8" style="text;html=1;align=center;verticalAlign=middle;resizable=0;points=[];autosize=1;strokeColor=none;fillColor=none;" vertex="1" parent="1">
          <mxGeometry x="320" y="790" width="130" height="20" as="geometry" />
        </mxCell>
        <mxCell id="_agv1lfEYgulr-Ovr4a9-79" style="edgeStyle=orthogonalEdgeStyle;rounded=0;orthogonalLoop=1;jettySize=auto;html=1;exitX=1;exitY=0.5;exitDx=0;exitDy=0;entryX=1;entryY=0.5;entryDx=0;entryDy=0;" edge="1" parent="1" source="_agv1lfEYgulr-Ovr4a9-35" target="_agv1lfEYgulr-Ovr4a9-43">
          <mxGeometry relative="1" as="geometry" />
        </mxCell>
        <mxCell id="_agv1lfEYgulr-Ovr4a9-35" value="sp" style="rounded=0;whiteSpace=wrap;html=1;" vertex="1" parent="1">
          <mxGeometry x="120" y="800" width="120" height="40" as="geometry" />
        </mxCell>
        <mxCell id="_agv1lfEYgulr-Ovr4a9-36" value="0x000000c000047ef0" style="text;html=1;align=center;verticalAlign=middle;resizable=0;points=[];autosize=1;strokeColor=none;fillColor=none;" vertex="1" parent="1">
          <mxGeometry x="320" y="830" width="130" height="20" as="geometry" />
        </mxCell>
        <mxCell id="_agv1lfEYgulr-Ovr4a9-37" value="_defer" style="rounded=0;whiteSpace=wrap;html=1;fillColor=#dae8fc;strokeColor=#6c8ebf;" vertex="1" parent="1">
          <mxGeometry x="120" y="840" width="120" height="40" as="geometry" />
        </mxCell>
        <mxCell id="_agv1lfEYgulr-Ovr4a9-38" value="0x000000c000047ee8" style="text;html=1;align=center;verticalAlign=middle;resizable=0;points=[];autosize=1;strokeColor=none;fillColor=none;" vertex="1" parent="1">
          <mxGeometry x="320" y="870" width="130" height="20" as="geometry" />
        </mxCell>
        <mxCell id="_agv1lfEYgulr-Ovr4a9-39" value="" style="rounded=0;whiteSpace=wrap;html=1;" vertex="1" parent="1">
          <mxGeometry x="120" y="880" width="120" height="40" as="geometry" />
        </mxCell>
        <mxCell id="_agv1lfEYgulr-Ovr4a9-40" value="0x000000c000047ee0" style="text;html=1;align=center;verticalAlign=middle;resizable=0;points=[];autosize=1;strokeColor=none;fillColor=none;" vertex="1" parent="1">
          <mxGeometry x="320" y="910" width="130" height="20" as="geometry" />
        </mxCell>
        <mxCell id="_agv1lfEYgulr-Ovr4a9-41" value="" style="rounded=0;whiteSpace=wrap;html=1;" vertex="1" parent="1">
          <mxGeometry x="120" y="920" width="120" height="40" as="geometry" />
        </mxCell>
        <mxCell id="_agv1lfEYgulr-Ovr4a9-42" value="0x000000c000047ed8" style="text;html=1;align=center;verticalAlign=middle;resizable=0;points=[];autosize=1;strokeColor=none;fillColor=none;" vertex="1" parent="1">
          <mxGeometry x="320" y="950" width="130" height="20" as="geometry" />
        </mxCell>
        <mxCell id="_agv1lfEYgulr-Ovr4a9-43" value="" style="rounded=0;whiteSpace=wrap;html=1;" vertex="1" parent="1">
          <mxGeometry x="120" y="960" width="120" height="40" as="geometry" />
        </mxCell>
        <mxCell id="_agv1lfEYgulr-Ovr4a9-44" value="0x000000c000047ed0" style="text;html=1;align=center;verticalAlign=middle;resizable=0;points=[];autosize=1;strokeColor=none;fillColor=none;" vertex="1" parent="1">
          <mxGeometry x="320" y="990" width="130" height="20" as="geometry" />
        </mxCell>
        <mxCell id="_agv1lfEYgulr-Ovr4a9-49" value="&lt;span&gt;RSP+0xA8&lt;/span&gt;" style="text;html=1;align=center;verticalAlign=middle;resizable=0;points=[];autosize=1;strokeColor=none;fillColor=none;" vertex="1" parent="1">
          <mxGeometry x="-30" y="150" width="70" height="20" as="geometry" />
        </mxCell>
        <mxCell id="_agv1lfEYgulr-Ovr4a9-50" value="&lt;span&gt;RSP&lt;/span&gt;" style="text;html=1;align=center;verticalAlign=middle;resizable=0;points=[];autosize=1;strokeColor=none;fillColor=none;" vertex="1" parent="1">
          <mxGeometry y="980" width="40" height="20" as="geometry" />
        </mxCell>
        <mxCell id="_agv1lfEYgulr-Ovr4a9-51" value="RBP" style="text;html=1;align=center;verticalAlign=middle;resizable=0;points=[];autosize=1;strokeColor=none;fillColor=none;" vertex="1" parent="1">
          <mxGeometry y="190" width="40" height="20" as="geometry" />
        </mxCell>
        <mxCell id="_agv1lfEYgulr-Ovr4a9-52" value="deferreturn&lt;br&gt;caller pc" style="rounded=0;whiteSpace=wrap;html=1;strokeColor=default;strokeWidth=2;" vertex="1" parent="1">
          <mxGeometry x="120" y="1000" width="120" height="40" as="geometry" />
        </mxCell>
        <mxCell id="_agv1lfEYgulr-Ovr4a9-53" value="0x000000c000047ec8" style="text;html=1;align=center;verticalAlign=middle;resizable=0;points=[];autosize=1;strokeColor=none;fillColor=none;" vertex="1" parent="1">
          <mxGeometry x="320" y="1030" width="130" height="20" as="geometry" />
        </mxCell>
        <mxCell id="_agv1lfEYgulr-Ovr4a9-54" value="old rbp" style="rounded=0;whiteSpace=wrap;html=1;strokeColor=default;strokeWidth=2;" vertex="1" parent="1">
          <mxGeometry x="120" y="1040" width="120" height="40" as="geometry" />
        </mxCell>
        <mxCell id="_agv1lfEYgulr-Ovr4a9-55" value="" style="rounded=0;whiteSpace=wrap;html=1;strokeColor=default;strokeWidth=2;" vertex="1" parent="1">
          <mxGeometry x="120" y="1080" width="120" height="40" as="geometry" />
        </mxCell>
        <mxCell id="_agv1lfEYgulr-Ovr4a9-56" value="" style="rounded=0;whiteSpace=wrap;html=1;strokeColor=default;strokeWidth=2;" vertex="1" parent="1">
          <mxGeometry x="120" y="1120" width="120" height="40" as="geometry" />
        </mxCell>
        <mxCell id="_agv1lfEYgulr-Ovr4a9-57" value="0x000000c000047eb0" style="text;html=1;align=center;verticalAlign=middle;resizable=0;points=[];autosize=1;strokeColor=none;fillColor=none;" vertex="1" parent="1">
          <mxGeometry x="320" y="1150" width="130" height="20" as="geometry" />
        </mxCell>
        <mxCell id="_agv1lfEYgulr-Ovr4a9-58" value="0x000000c000047eb8" style="text;html=1;align=center;verticalAlign=middle;resizable=0;points=[];autosize=1;strokeColor=none;fillColor=none;" vertex="1" parent="1">
          <mxGeometry x="320" y="1110" width="130" height="20" as="geometry" />
        </mxCell>
        <mxCell id="_agv1lfEYgulr-Ovr4a9-59" value="0x000000c000047ec0" style="text;html=1;align=center;verticalAlign=middle;resizable=0;points=[];autosize=1;strokeColor=none;fillColor=none;" vertex="1" parent="1">
          <mxGeometry x="320" y="1070" width="130" height="20" as="geometry" />
        </mxCell>
        <mxCell id="_agv1lfEYgulr-Ovr4a9-60" value="&lt;span&gt;RSP&lt;/span&gt;" style="text;html=1;align=center;verticalAlign=middle;resizable=0;points=[];autosize=1;strokeColor=none;fillColor=none;" vertex="1" parent="1">
          <mxGeometry x="40" y="1300" width="40" height="20" as="geometry" />
        </mxCell>
        <mxCell id="_agv1lfEYgulr-Ovr4a9-61" value="RBP" style="text;html=1;align=center;verticalAlign=middle;resizable=0;points=[];autosize=1;strokeColor=none;fillColor=none;" vertex="1" parent="1">
          <mxGeometry x="40" y="1070" width="40" height="20" as="geometry" />
        </mxCell>
        <mxCell id="_agv1lfEYgulr-Ovr4a9-62" value="" style="rounded=0;whiteSpace=wrap;html=1;strokeColor=default;strokeWidth=2;" vertex="1" parent="1">
          <mxGeometry x="120" y="1120" width="120" height="40" as="geometry" />
        </mxCell>
        <mxCell id="_agv1lfEYgulr-Ovr4a9-63" value="" style="rounded=0;whiteSpace=wrap;html=1;strokeColor=default;strokeWidth=2;" vertex="1" parent="1">
          <mxGeometry x="120" y="1080" width="120" height="40" as="geometry" />
        </mxCell>
        <mxCell id="_agv1lfEYgulr-Ovr4a9-73" style="edgeStyle=orthogonalEdgeStyle;rounded=0;orthogonalLoop=1;jettySize=auto;html=1;exitX=0;exitY=0.5;exitDx=0;exitDy=0;entryX=0;entryY=0.5;entryDx=0;entryDy=0;" edge="1" parent="1" source="_agv1lfEYgulr-Ovr4a9-64" target="_agv1lfEYgulr-Ovr4a9-3">
          <mxGeometry relative="1" as="geometry" />
        </mxCell>
        <mxCell id="_agv1lfEYgulr-Ovr4a9-64" value="old rbp" style="rounded=0;whiteSpace=wrap;html=1;strokeColor=default;strokeWidth=2;" vertex="1" parent="1">
          <mxGeometry x="120" y="1040" width="120" height="40" as="geometry" />
        </mxCell>
        <mxCell id="_agv1lfEYgulr-Ovr4a9-65" value="_defer.fn" style="rounded=0;whiteSpace=wrap;html=1;strokeColor=default;strokeWidth=2;" vertex="1" parent="1">
          <mxGeometry x="120" y="1160" width="120" height="40" as="geometry" />
        </mxCell>
        <mxCell id="_agv1lfEYgulr-Ovr4a9-66" value="" style="rounded=0;whiteSpace=wrap;html=1;strokeColor=default;strokeWidth=2;" vertex="1" parent="1">
          <mxGeometry x="120" y="1280" width="120" height="40" as="geometry" />
        </mxCell>
        <mxCell id="_agv1lfEYgulr-Ovr4a9-67" value="" style="rounded=0;whiteSpace=wrap;html=1;strokeColor=default;strokeWidth=2;" vertex="1" parent="1">
          <mxGeometry x="120" y="1240" width="120" height="40" as="geometry" />
        </mxCell>
        <mxCell id="_agv1lfEYgulr-Ovr4a9-68" value="g" style="rounded=0;whiteSpace=wrap;html=1;strokeColor=default;strokeWidth=2;" vertex="1" parent="1">
          <mxGeometry x="120" y="1200" width="120" height="40" as="geometry" />
        </mxCell>
        <mxCell id="_agv1lfEYgulr-Ovr4a9-69" value="0x000000c000047ea8" style="text;html=1;align=center;verticalAlign=middle;resizable=0;points=[];autosize=1;strokeColor=none;fillColor=none;" vertex="1" parent="1">
          <mxGeometry x="320" y="1190" width="130" height="20" as="geometry" />
        </mxCell>
        <mxCell id="_agv1lfEYgulr-Ovr4a9-70" value="0x000000c000047ea0" style="text;html=1;align=center;verticalAlign=middle;resizable=0;points=[];autosize=1;strokeColor=none;fillColor=none;" vertex="1" parent="1">
          <mxGeometry x="320" y="1230" width="130" height="20" as="geometry" />
        </mxCell>
        <mxCell id="_agv1lfEYgulr-Ovr4a9-71" value="0x000000c000047e98" style="text;html=1;align=center;verticalAlign=middle;resizable=0;points=[];autosize=1;strokeColor=none;fillColor=none;" vertex="1" parent="1">
          <mxGeometry x="320" y="1265" width="130" height="20" as="geometry" />
        </mxCell>
        <mxCell id="_agv1lfEYgulr-Ovr4a9-72" value="0x000000c000047e90" style="text;html=1;align=center;verticalAlign=middle;resizable=0;points=[];autosize=1;strokeColor=none;fillColor=none;" vertex="1" parent="1">
          <mxGeometry x="320" y="1310" width="130" height="20" as="geometry" />
        </mxCell>
        <mxCell id="_agv1lfEYgulr-Ovr4a9-80" value="&lt;span&gt;fun1&lt;/span&gt;&lt;br&gt;&lt;span&gt;caller pc&lt;/span&gt;" style="rounded=0;whiteSpace=wrap;html=1;" vertex="1" parent="1">
          <mxGeometry x="120" y="1320" width="120" height="40" as="geometry" />
        </mxCell>
        <mxCell id="_agv1lfEYgulr-Ovr4a9-81" value="&lt;span&gt;old rbp&lt;/span&gt;" style="rounded=0;whiteSpace=wrap;html=1;" vertex="1" parent="1">
          <mxGeometry x="120" y="1360" width="120" height="40" as="geometry" />
        </mxCell>
        <mxCell id="_agv1lfEYgulr-Ovr4a9-82" value="" style="rounded=0;whiteSpace=wrap;html=1;" vertex="1" parent="1">
          <mxGeometry x="120" y="1400" width="120" height="40" as="geometry" />
        </mxCell>
        <mxCell id="_agv1lfEYgulr-Ovr4a9-83" value="" style="rounded=0;whiteSpace=wrap;html=1;" vertex="1" parent="1">
          <mxGeometry x="120" y="1440" width="120" height="40" as="geometry" />
        </mxCell>
        <mxCell id="_agv1lfEYgulr-Ovr4a9-84" value="0x000000c000047e88" style="text;html=1;align=center;verticalAlign=middle;resizable=0;points=[];autosize=1;strokeColor=none;fillColor=none;" vertex="1" parent="1">
          <mxGeometry x="320" y="1350" width="130" height="20" as="geometry" />
        </mxCell>
        <mxCell id="_agv1lfEYgulr-Ovr4a9-85" value="" style="rounded=0;whiteSpace=wrap;html=1;" vertex="1" parent="1">
          <mxGeometry x="120" y="1480" width="120" height="40" as="geometry" />
        </mxCell>
        <mxCell id="_agv1lfEYgulr-Ovr4a9-86" value="" style="rounded=0;whiteSpace=wrap;html=1;" vertex="1" parent="1">
          <mxGeometry x="120" y="1520" width="120" height="40" as="geometry" />
        </mxCell>
        <mxCell id="_agv1lfEYgulr-Ovr4a9-87" value="&quot;testdata&quot;" style="rounded=0;whiteSpace=wrap;html=1;" vertex="1" parent="1">
          <mxGeometry x="120" y="1560" width="120" height="40" as="geometry" />
        </mxCell>
        <mxCell id="_agv1lfEYgulr-Ovr4a9-103" style="edgeStyle=orthogonalEdgeStyle;rounded=0;orthogonalLoop=1;jettySize=auto;html=1;exitX=1;exitY=0.5;exitDx=0;exitDy=0;entryX=1;entryY=0.5;entryDx=0;entryDy=0;" edge="1" parent="1" source="_agv1lfEYgulr-Ovr4a9-88" target="_agv1lfEYgulr-Ovr4a9-87">
          <mxGeometry relative="1" as="geometry" />
        </mxCell>
        <mxCell id="_agv1lfEYgulr-Ovr4a9-88" value="" style="rounded=0;whiteSpace=wrap;html=1;" vertex="1" parent="1">
          <mxGeometry x="120" y="1600" width="120" height="40" as="geometry" />
        </mxCell>
        <mxCell id="_agv1lfEYgulr-Ovr4a9-89" value="" style="rounded=0;whiteSpace=wrap;html=1;" vertex="1" parent="1">
          <mxGeometry x="120" y="1640" width="120" height="40" as="geometry" />
        </mxCell>
        <mxCell id="_agv1lfEYgulr-Ovr4a9-90" value="" style="rounded=0;whiteSpace=wrap;html=1;" vertex="1" parent="1">
          <mxGeometry x="120" y="1680" width="120" height="40" as="geometry" />
        </mxCell>
        <mxCell id="_agv1lfEYgulr-Ovr4a9-91" value="" style="rounded=0;whiteSpace=wrap;html=1;" vertex="1" parent="1">
          <mxGeometry x="120" y="1720" width="120" height="40" as="geometry" />
        </mxCell>
        <mxCell id="_agv1lfEYgulr-Ovr4a9-92" value="0x000000c000047e38" style="text;html=1;align=center;verticalAlign=middle;resizable=0;points=[];autosize=1;strokeColor=none;fillColor=none;" vertex="1" parent="1">
          <mxGeometry x="320" y="1750" width="130" height="20" as="geometry" />
        </mxCell>
        <mxCell id="_agv1lfEYgulr-Ovr4a9-93" value="0x000000c000047e40" style="text;html=1;align=center;verticalAlign=middle;resizable=0;points=[];autosize=1;strokeColor=none;fillColor=none;" vertex="1" parent="1">
          <mxGeometry x="320" y="1710" width="130" height="20" as="geometry" />
        </mxCell>
        <mxCell id="_agv1lfEYgulr-Ovr4a9-94" value="0x000000c000047e48" style="text;html=1;align=center;verticalAlign=middle;resizable=0;points=[];autosize=1;strokeColor=none;fillColor=none;" vertex="1" parent="1">
          <mxGeometry x="320" y="1670" width="130" height="20" as="geometry" />
        </mxCell>
        <mxCell id="_agv1lfEYgulr-Ovr4a9-95" value="0x000000c000047e50" style="text;html=1;align=center;verticalAlign=middle;resizable=0;points=[];autosize=1;strokeColor=none;fillColor=none;" vertex="1" parent="1">
          <mxGeometry x="320" y="1630" width="130" height="20" as="geometry" />
        </mxCell>
        <mxCell id="_agv1lfEYgulr-Ovr4a9-96" value="0x000000c000047e58" style="text;html=1;align=center;verticalAlign=middle;resizable=0;points=[];autosize=1;strokeColor=none;fillColor=none;" vertex="1" parent="1">
          <mxGeometry x="320" y="1590" width="130" height="20" as="geometry" />
        </mxCell>
        <mxCell id="_agv1lfEYgulr-Ovr4a9-97" value="0x000000c000047e60" style="text;html=1;align=center;verticalAlign=middle;resizable=0;points=[];autosize=1;strokeColor=none;fillColor=none;" vertex="1" parent="1">
          <mxGeometry x="320" y="1550" width="130" height="20" as="geometry" />
        </mxCell>
        <mxCell id="_agv1lfEYgulr-Ovr4a9-98" value="0x000000c000047e68" style="text;html=1;align=center;verticalAlign=middle;resizable=0;points=[];autosize=1;strokeColor=none;fillColor=none;" vertex="1" parent="1">
          <mxGeometry x="320" y="1510" width="130" height="20" as="geometry" />
        </mxCell>
        <mxCell id="_agv1lfEYgulr-Ovr4a9-99" value="0x000000c000047e70" style="text;html=1;align=center;verticalAlign=middle;resizable=0;points=[];autosize=1;strokeColor=none;fillColor=none;" vertex="1" parent="1">
          <mxGeometry x="320" y="1470" width="130" height="20" as="geometry" />
        </mxCell>
        <mxCell id="_agv1lfEYgulr-Ovr4a9-100" value="0x000000c000047e78" style="text;html=1;align=center;verticalAlign=middle;resizable=0;points=[];autosize=1;strokeColor=none;fillColor=none;" vertex="1" parent="1">
          <mxGeometry x="320" y="1430" width="130" height="20" as="geometry" />
        </mxCell>
        <mxCell id="_agv1lfEYgulr-Ovr4a9-101" value="0x000000c000047e80" style="text;html=1;align=center;verticalAlign=middle;resizable=0;points=[];autosize=1;strokeColor=none;fillColor=none;" vertex="1" parent="1">
          <mxGeometry x="320" y="1390" width="130" height="20" as="geometry" />
        </mxCell>
      </root>
    </mxGraphModel>
  </diagram>
</mxfile>
